<svg width="44" height="44" viewBox="0 0 44 44" fill="none" xmlns="http://www.w3.org/2000/svg">
<circle cx="22" cy="22" r="22" fill="url(#paint0_linear_28_506)"/>
<path d="M22 22.0001C20.6556 22.0001 19.5046 21.5214 18.5472 20.564C17.5898 19.6065 17.1111 18.4556 17.1111 17.1112C17.1111 15.7667 17.5898 14.6158 18.5472 13.6584C19.5046 12.701 20.6556 12.2223 22 12.2223C23.3445 12.2223 24.4954 12.701 25.4528 13.6584C26.4102 14.6158 26.8889 15.7667 26.8889 17.1112C26.8889 18.4556 26.4102 19.6065 25.4528 20.564C24.4954 21.5214 23.3445 22.0001 22 22.0001ZM12.2222 29.3334V28.3556C12.2222 27.663 12.4007 27.0267 12.7576 26.4465C13.1145 25.8664 13.5879 25.4231 14.1778 25.1167C15.4407 24.4853 16.7241 24.0118 18.0278 23.6965C19.3315 23.3812 20.6556 23.2231 22 23.2223C23.3445 23.2215 24.6685 23.3795 25.9722 23.6965C27.2759 24.0135 28.5593 24.4869 29.8222 25.1167C30.413 25.4223 30.8868 25.8655 31.2437 26.4465C31.6006 27.0275 31.7786 27.6638 31.7778 28.3556V29.3334C31.7778 30.0056 31.5386 30.5813 31.0603 31.0604C30.582 31.5395 30.0064 31.7787 29.3333 31.7778H14.6667C13.9945 31.7778 13.4192 31.5387 12.9409 31.0604C12.4626 30.5821 12.223 30.0064 12.2222 29.3334Z" fill="white"/>
<defs>
<linearGradient id="paint0_linear_28_506" x1="22" y1="0" x2="22" y2="44" gradientUnits="userSpaceOnUse">
<stop stop-color="#6BD9FF"/>
<stop offset="1" stop-color="#1085FF"/>
</linearGradient>
</defs>
</svg>
