<svg width="53" height="53" viewBox="0 0 53 53" fill="none" xmlns="http://www.w3.org/2000/svg">
<path d="M53 26.5C53 41.1355 41.1355 53 26.5 53C11.8645 53 0 41.1355 0 26.5C0 11.8645 11.8645 0 26.5 0C41.1355 0 53 11.8645 53 26.5Z" fill="url(#paint0_linear_28_695)"/>
<path d="M22.733 15.2049C23.6386 12.5549 27.3001 12.4747 28.3737 14.9642L28.4646 15.2065L29.6866 18.7802C29.9667 19.5998 30.4192 20.3497 31.0138 20.9796C31.6083 21.6094 32.331 22.1043 33.1331 22.4311L33.4617 22.5538L37.0355 23.7743C39.6855 24.6798 39.7657 28.3414 37.2777 29.415L37.0355 29.5059L33.4617 30.7279C32.6419 31.0078 31.8916 31.4602 31.2615 32.0548C30.6314 32.6493 30.1362 33.3721 29.8093 34.1744L29.6866 34.5015L28.4661 38.0767C27.5606 40.7267 23.899 40.807 22.8269 38.319L22.733 38.0767L21.5125 34.503C21.2326 33.6831 20.7802 32.9329 20.1856 32.3028C19.5911 31.6727 18.8683 31.1775 18.066 30.8505L17.7389 30.7279L14.1652 29.5074C11.5137 28.6018 11.4334 24.9403 13.9229 23.8682L14.1652 23.7743L17.7389 22.5538C18.5585 22.2737 19.3085 21.8212 19.9383 21.2266C20.5681 20.6321 21.0631 19.9094 21.3899 19.1073L21.5125 18.7802L22.733 15.2049ZM25.5996 16.1832L24.3791 19.7569C23.9526 21.0066 23.2589 22.1484 22.3462 23.1027C21.4335 24.057 20.3237 24.8009 19.0942 25.2825L18.7156 25.4203L15.1419 26.6408L18.7156 27.8613C19.9654 28.2878 21.1071 28.9815 22.0614 29.8942C23.0157 30.8069 23.7596 31.9167 24.2413 33.1462L24.3791 33.5248L25.5996 37.0985L26.8201 33.5248C27.2465 32.275 27.9403 31.1333 28.853 30.179C29.7657 29.2247 30.8754 28.4808 32.1049 27.9991L32.4835 27.8629L36.0572 26.6408L32.4835 25.4203C31.2338 24.9939 30.092 24.3001 29.1377 23.3874C28.1834 22.4747 27.4395 21.365 26.9579 20.1355L26.8216 19.7569L25.5996 16.1832ZM37.7139 9.98369C37.9972 9.98369 38.2748 10.0632 38.5151 10.2131C38.7555 10.363 38.949 10.5773 39.0737 10.8317L39.1464 11.0089L39.6764 12.5625L41.2315 13.0925C41.5154 13.189 41.7643 13.3675 41.9466 13.6056C42.1289 13.8436 42.2365 14.1304 42.2556 14.4297C42.2748 14.7289 42.2046 15.0271 42.0541 15.2864C41.9036 15.5457 41.6795 15.7545 41.4102 15.8864L41.2315 15.9591L39.6779 16.4891L39.1479 18.0442C39.0513 18.328 38.8726 18.5768 38.6344 18.759C38.3963 18.9411 38.1094 19.0485 37.8102 19.0675C37.511 19.0864 37.2129 19.0162 36.9537 18.8655C36.6944 18.7149 36.4857 18.4907 36.354 18.2214L36.2813 18.0442L35.7513 16.4906L34.1962 15.9606C33.9123 15.8641 33.6634 15.6856 33.4811 15.4475C33.2988 15.2095 33.1912 14.9227 33.1721 14.6234C33.153 14.3242 33.2231 14.026 33.3736 13.7667C33.5241 13.5074 33.7482 13.2985 34.0175 13.1667L34.1962 13.094L35.7498 12.564L36.2798 11.0089C36.3819 10.7097 36.5751 10.4499 36.8323 10.2661C37.0895 10.0822 37.3977 9.9835 37.7139 9.98369Z" fill="white"/>
<defs>
<linearGradient id="paint0_linear_28_695" x1="26.5" y1="0" x2="26.5" y2="53" gradientUnits="userSpaceOnUse">
<stop stop-color="#6BD9FF"/>
<stop offset="1" stop-color="#1085FF"/>
</linearGradient>
</defs>
</svg>
